<svg width="150" height="49" viewBox="0 0 150 49" fill="none" xmlns="http://www.w3.org/2000/svg">
<path d="M5.5 32.1667L9.16667 35.8333L16.5 28.5" stroke="#292929" stroke-width="4" stroke-linecap="round" stroke-linejoin="round"/>
<path d="M5.5 13.8333L9.16667 17.5L16.5 10.1667" stroke="#AD51E5" stroke-width="4" stroke-linecap="round" stroke-linejoin="round"/>
<path d="M23.8333 12L27.5 13.8333L31.1666 12.9167L34.8333 13.8333L38.5 12" stroke="#AD51E5" stroke-width="4" stroke-linecap="round" stroke-linejoin="round"/>
<path d="M23.8333 23L26.5833 24.8333L31.1666 23.9166L34.8333 22.0833L38.5 23" stroke="#292929" stroke-width="4" stroke-linecap="round" stroke-linejoin="round"/>
<path d="M23.8333 34L27.5 32.1667L31.1666 33.0834L34.8333 32.1667L38.5 34" stroke="#AD51E5" stroke-width="4" stroke-linecap="round" stroke-linejoin="round"/>
<mask id="path-6-outside-1_15282_9" maskUnits="userSpaceOnUse" x="52" y="8" width="97" height="28" fill="black">
<rect fill="white" x="52" y="8" width="97" height="28"/>
<path d="M54.8096 14.4434C53.9795 14.4434 53.5645 14.0837 53.5645 13.3643V11.2725C53.5645 10.5531 53.9795 10.1934 54.8096 10.1934H71.876C72.7061 10.1934 73.1211 10.5531 73.1211 11.2725V13.3643C73.1211 14.0837 72.7061 14.4434 71.876 14.4434H65.7666V33.0869C65.7666 33.6956 65.4899 34 64.9365 34H61.749C61.1956 34 60.9189 33.6956 60.9189 33.0869V14.4434H54.8096ZM103.137 34C102.362 34 101.975 33.585 101.975 32.7549V11.4385C101.975 10.6084 102.362 10.1934 103.137 10.1934H108.931C114.022 10.1934 117.464 11.2227 119.257 13.2812C121.061 15.3398 121.963 18.2673 121.963 22.0635C121.963 25.8597 121.061 28.7982 119.257 30.8789C117.464 32.9596 114.022 34 108.931 34H103.137ZM106.822 29.8828H108.615C112.046 29.8828 114.265 29.2464 115.272 27.9736C116.28 26.6898 116.783 24.7197 116.783 22.0635C116.783 19.4072 116.28 17.4482 115.272 16.1865C114.265 14.9137 112.046 14.2773 108.615 14.2773H106.822V29.8828Z"/>
<path d="M75.1133 22.0967C75.1133 18.2783 76.0983 15.2458 78.0684 12.999C80.0384 10.7523 82.8496 9.62891 86.502 9.62891C90.1543 9.62891 92.9655 10.7523 94.9355 12.999C96.9056 15.2458 97.8906 18.2783 97.8906 22.0967C97.8906 25.915 96.9056 28.9476 94.9355 31.1943C92.9655 33.4411 90.1543 34.5645 86.502 34.5645C82.8496 34.5645 80.0384 33.4411 78.0684 31.1943C76.0983 28.9476 75.1133 25.915 75.1133 22.0967ZM80.293 22.0967C80.293 24.8636 80.7855 26.9831 81.7705 28.4551C82.7666 29.916 84.3438 30.6465 86.502 30.6465C88.6602 30.6465 90.2318 29.916 91.2168 28.4551C92.2129 26.9831 92.7109 24.8636 92.7109 22.0967C92.7109 19.3298 92.2129 17.2158 91.2168 15.7549C90.2318 14.2829 88.6602 13.5469 86.502 13.5469C84.3438 13.5469 82.7666 14.2829 81.7705 15.7549C80.7855 17.2158 80.293 19.3298 80.293 22.0967Z"/>
<path d="M124.818 22.0967C124.818 18.2783 125.803 15.2458 127.773 12.999C129.743 10.7523 132.555 9.62891 136.207 9.62891C139.859 9.62891 142.671 10.7523 144.641 12.999C146.611 15.2458 147.596 18.2783 147.596 22.0967C147.596 25.915 146.611 28.9476 144.641 31.1943C142.671 33.4411 139.859 34.5645 136.207 34.5645C132.555 34.5645 129.743 33.4411 127.773 31.1943C125.803 28.9476 124.818 25.915 124.818 22.0967ZM129.998 22.0967C129.998 24.8636 130.491 26.9831 131.476 28.4551C132.472 29.916 134.049 30.6465 136.207 30.6465C138.365 30.6465 139.937 29.916 140.922 28.4551C141.918 26.9831 142.416 24.8636 142.416 22.0967C142.416 19.3298 141.918 17.2158 140.922 15.7549C139.937 14.2829 138.365 13.5469 136.207 13.5469C134.049 13.5469 132.472 14.2829 131.476 15.7549C130.491 17.2158 129.998 19.3298 129.998 22.0967Z"/>
</mask>
<path d="M54.8096 14.4434C53.9795 14.4434 53.5645 14.0837 53.5645 13.3643V11.2725C53.5645 10.5531 53.9795 10.1934 54.8096 10.1934H71.876C72.7061 10.1934 73.1211 10.5531 73.1211 11.2725V13.3643C73.1211 14.0837 72.7061 14.4434 71.876 14.4434H65.7666V33.0869C65.7666 33.6956 65.4899 34 64.9365 34H61.749C61.1956 34 60.9189 33.6956 60.9189 33.0869V14.4434H54.8096ZM103.137 34C102.362 34 101.975 33.585 101.975 32.7549V11.4385C101.975 10.6084 102.362 10.1934 103.137 10.1934H108.931C114.022 10.1934 117.464 11.2227 119.257 13.2812C121.061 15.3398 121.963 18.2673 121.963 22.0635C121.963 25.8597 121.061 28.7982 119.257 30.8789C117.464 32.9596 114.022 34 108.931 34H103.137ZM106.822 29.8828H108.615C112.046 29.8828 114.265 29.2464 115.272 27.9736C116.28 26.6898 116.783 24.7197 116.783 22.0635C116.783 19.4072 116.28 17.4482 115.272 16.1865C114.265 14.9137 112.046 14.2773 108.615 14.2773H106.822V29.8828Z" fill="#292929"/>
<path d="M75.1133 22.0967C75.1133 18.2783 76.0983 15.2458 78.0684 12.999C80.0384 10.7523 82.8496 9.62891 86.502 9.62891C90.1543 9.62891 92.9655 10.7523 94.9355 12.999C96.9056 15.2458 97.8906 18.2783 97.8906 22.0967C97.8906 25.915 96.9056 28.9476 94.9355 31.1943C92.9655 33.4411 90.1543 34.5645 86.502 34.5645C82.8496 34.5645 80.0384 33.4411 78.0684 31.1943C76.0983 28.9476 75.1133 25.915 75.1133 22.0967ZM80.293 22.0967C80.293 24.8636 80.7855 26.9831 81.7705 28.4551C82.7666 29.916 84.3438 30.6465 86.502 30.6465C88.6602 30.6465 90.2318 29.916 91.2168 28.4551C92.2129 26.9831 92.7109 24.8636 92.7109 22.0967C92.7109 19.3298 92.2129 17.2158 91.2168 15.7549C90.2318 14.2829 88.6602 13.5469 86.502 13.5469C84.3438 13.5469 82.7666 14.2829 81.7705 15.7549C80.7855 17.2158 80.293 19.3298 80.293 22.0967Z" fill="#AD51E5"/>
<path d="M124.818 22.0967C124.818 18.2783 125.803 15.2458 127.773 12.999C129.743 10.7523 132.555 9.62891 136.207 9.62891C139.859 9.62891 142.671 10.7523 144.641 12.999C146.611 15.2458 147.596 18.2783 147.596 22.0967C147.596 25.915 146.611 28.9476 144.641 31.1943C142.671 33.4411 139.859 34.5645 136.207 34.5645C132.555 34.5645 129.743 33.4411 127.773 31.1943C125.803 28.9476 124.818 25.915 124.818 22.0967ZM129.998 22.0967C129.998 24.8636 130.491 26.9831 131.476 28.4551C132.472 29.916 134.049 30.6465 136.207 30.6465C138.365 30.6465 139.937 29.916 140.922 28.4551C141.918 26.9831 142.416 24.8636 142.416 22.0967C142.416 19.3298 141.918 17.2158 140.922 15.7549C139.937 14.2829 138.365 13.5469 136.207 13.5469C134.049 13.5469 132.472 14.2829 131.476 15.7549C130.491 17.2158 129.998 19.3298 129.998 22.0967Z" fill="white"/>
<path d="M65.7666 14.4434V13.4434H64.7666V14.4434H65.7666ZM60.9189 14.4434H61.9189V13.4434H60.9189V14.4434ZM54.8096 13.4434C54.671 13.4434 54.5866 13.428 54.5424 13.4152C54.5011 13.4033 54.507 13.3974 54.5307 13.4179C54.5574 13.4411 54.5718 13.4675 54.5756 13.4774C54.5771 13.4813 54.5645 13.4503 54.5645 13.3643H52.5645C52.5645 13.9184 52.7309 14.5047 53.2208 14.9293C53.6833 15.3301 54.2727 15.4434 54.8096 15.4434V13.4434ZM54.5645 13.3643V11.2725H52.5645V13.3643H54.5645ZM54.5645 11.2725C54.5645 11.1864 54.5771 11.1555 54.5756 11.1593C54.5718 11.1692 54.5574 11.1957 54.5307 11.2188C54.507 11.2393 54.5011 11.2334 54.5424 11.2215C54.5866 11.2087 54.671 11.1934 54.8096 11.1934V9.19336C54.2727 9.19336 53.6833 9.30661 53.2208 9.70745C52.7309 10.132 52.5645 10.7184 52.5645 11.2725H54.5645ZM54.8096 11.1934H71.876V9.19336H54.8096V11.1934ZM71.876 11.1934C72.0145 11.1934 72.0989 11.2087 72.1432 11.2215C72.1844 11.2334 72.1785 11.2393 72.1549 11.2188C72.1282 11.1957 72.1137 11.1692 72.1099 11.1593C72.1084 11.1555 72.1211 11.1864 72.1211 11.2725H74.1211C74.1211 10.7184 73.9546 10.132 73.4647 9.70745C73.0022 9.30661 72.4129 9.19336 71.876 9.19336V11.1934ZM72.1211 11.2725V13.3643H74.1211V11.2725H72.1211ZM72.1211 13.3643C72.1211 13.4503 72.1084 13.4813 72.1099 13.4774C72.1137 13.4675 72.1282 13.4411 72.1549 13.4179C72.1785 13.3974 72.1844 13.4033 72.1432 13.4152C72.0989 13.428 72.0145 13.4434 71.876 13.4434V15.4434C72.4129 15.4434 73.0022 15.3301 73.4647 14.9293C73.9546 14.5047 74.1211 13.9184 74.1211 13.3643H72.1211ZM71.876 13.4434H65.7666V15.4434H71.876V13.4434ZM64.7666 14.4434V33.0869H66.7666V14.4434H64.7666ZM64.7666 33.0869C64.7666 33.1665 64.7572 33.1981 64.7577 33.1964C64.7593 33.1911 64.7737 33.1491 64.8191 33.0991C64.8665 33.047 64.9194 33.0173 64.9554 33.0041C64.9858 32.9929 64.9858 33 64.9365 33V35C65.3932 35 65.9121 34.87 66.299 34.4444C66.6695 34.0369 66.7666 33.5231 66.7666 33.0869H64.7666ZM64.9365 33H61.749V35H64.9365V33ZM61.749 33C61.6997 33 61.6998 32.9929 61.7301 33.0041C61.7662 33.0173 61.8191 33.047 61.8664 33.0991C61.9119 33.1491 61.9262 33.1911 61.9278 33.1964C61.9284 33.1981 61.9189 33.1665 61.9189 33.0869H59.9189C59.9189 33.5231 60.016 34.0369 60.3865 34.4444C60.7735 34.87 61.2923 35 61.749 35V33ZM61.9189 33.0869V14.4434H59.9189V33.0869H61.9189ZM60.9189 13.4434H54.8096V15.4434H60.9189V13.4434ZM78.0684 12.999L77.3165 12.3397L78.0684 12.999ZM81.7705 28.4551L80.9394 29.0112L80.9443 29.0184L81.7705 28.4551ZM91.2168 28.4551L90.3886 27.8946L90.3877 27.896L91.2168 28.4551ZM91.2168 15.7549L90.3857 16.311L90.3906 16.3182L91.2168 15.7549ZM81.7705 15.7549L80.9423 15.1944L80.9414 15.1958L81.7705 15.7549ZM76.1133 22.0967C76.1133 18.4516 77.0506 15.6765 78.8202 13.6583L77.3165 12.3397C75.146 14.815 74.1133 18.105 74.1133 22.0967H76.1133ZM78.8202 13.6583C80.5589 11.6755 83.068 10.6289 86.502 10.6289V8.62891C82.6312 8.62891 79.5179 9.8291 77.3165 12.3397L78.8202 13.6583ZM86.502 10.6289C89.9359 10.6289 92.445 11.6755 94.1837 13.6583L95.6874 12.3397C93.486 9.8291 90.3727 8.62891 86.502 8.62891V10.6289ZM94.1837 13.6583C95.9533 15.6765 96.8906 18.4516 96.8906 22.0967H98.8906C98.8906 18.105 97.8579 14.815 95.6874 12.3397L94.1837 13.6583ZM96.8906 22.0967C96.8906 25.7418 95.9533 28.5168 94.1837 30.535L95.6874 31.8536C97.8579 29.3784 98.8906 26.0883 98.8906 22.0967H96.8906ZM94.1837 30.535C92.445 32.5179 89.9359 33.5645 86.502 33.5645V35.5645C90.3727 35.5645 93.486 34.3643 95.6874 31.8536L94.1837 30.535ZM86.502 33.5645C83.068 33.5645 80.5589 32.5179 78.8202 30.535L77.3165 31.8536C79.5179 34.3643 82.6312 35.5645 86.502 35.5645V33.5645ZM78.8202 30.535C77.0506 28.5168 76.1133 25.7418 76.1133 22.0967H74.1133C74.1133 26.0883 75.146 29.3784 77.3165 31.8536L78.8202 30.535ZM79.293 22.0967C79.293 24.9588 79.7984 27.3061 80.9394 29.0112L82.6016 27.8989C81.7726 26.6601 81.293 24.7684 81.293 22.0967H79.293ZM80.9443 29.0184C82.169 30.8146 84.0961 31.6465 86.502 31.6465V29.6465C84.5914 29.6465 83.3642 29.0174 82.5967 27.8917L80.9443 29.0184ZM86.502 31.6465C88.9075 31.6465 90.832 30.8146 92.0459 29.0141L90.3877 27.896C89.6315 29.0175 88.4128 29.6465 86.502 29.6465V31.6465ZM92.045 29.0155C93.1994 27.3095 93.7109 24.9604 93.7109 22.0967H91.7109C91.7109 24.7668 91.2263 26.6567 90.3886 27.8946L92.045 29.0155ZM93.7109 22.0967C93.7109 19.2337 93.1997 16.8881 92.043 15.1915L90.3906 16.3182C91.226 17.5436 91.7109 19.4258 91.7109 22.0967H93.7109ZM92.0479 15.1987C90.8353 13.3866 88.9106 12.5469 86.502 12.5469V14.5469C88.4097 14.5469 89.6283 15.1791 90.3857 16.311L92.0479 15.1987ZM86.502 12.5469C84.093 12.5469 82.1657 13.3865 80.9423 15.1944L82.5987 16.3153C83.3675 15.1792 84.5945 14.5469 86.502 14.5469V12.5469ZM80.9414 15.1958C79.7981 16.8915 79.293 19.2353 79.293 22.0967H81.293C81.293 19.4242 81.7729 17.5401 82.5996 16.3139L80.9414 15.1958ZM119.257 13.2812L118.503 13.938L118.505 13.9403L119.257 13.2812ZM119.257 30.8789L118.501 30.2238L118.499 30.2261L119.257 30.8789ZM106.822 29.8828H105.822V30.8828H106.822V29.8828ZM115.272 27.9736L116.057 28.5942L116.059 28.5909L115.272 27.9736ZM115.272 16.1865L114.488 16.8071L114.491 16.8104L115.272 16.1865ZM106.822 14.2773V13.2773H105.822V14.2773H106.822ZM103.137 33C103.03 33 102.978 32.9853 102.965 32.9804C102.956 32.9775 102.975 32.9835 102.996 33.0064C103.041 33.0541 102.975 33.0323 102.975 32.7549H100.975C100.975 33.3076 101.102 33.9083 101.534 34.371C101.978 34.8468 102.577 35 103.137 35V33ZM102.975 32.7549V11.4385H100.975V32.7549H102.975ZM102.975 11.4385C102.975 11.1611 103.041 11.1393 102.996 11.187C102.975 11.2099 102.956 11.2158 102.965 11.2129C102.978 11.208 103.03 11.1934 103.137 11.1934V9.19336C102.577 9.19336 101.978 9.34658 101.534 9.82232C101.102 10.2851 100.975 10.8858 100.975 11.4385H102.975ZM103.137 11.1934H108.931V9.19336H103.137V11.1934ZM108.931 11.1934C113.962 11.1934 117.011 12.2253 118.503 13.938L120.011 12.6245C117.917 10.22 114.082 9.19336 108.931 9.19336V11.1934ZM118.505 13.9403C120.096 15.7566 120.963 18.416 120.963 22.0635H122.963C122.963 18.1185 122.025 14.9231 120.009 12.6222L118.505 13.9403ZM120.963 22.0635C120.963 25.7101 120.097 28.3836 118.501 30.2238L120.012 31.534C122.025 29.2128 122.963 26.0093 122.963 22.0635H120.963ZM118.499 30.2261C117.007 31.9579 113.96 33 108.931 33V35C114.084 35 117.921 33.9613 120.014 31.5317L118.499 30.2261ZM108.931 33H103.137V35H108.931V33ZM106.822 30.8828H108.615V28.8828H106.822V30.8828ZM108.615 30.8828C110.383 30.8828 111.897 30.7199 113.128 30.3668C114.357 30.0144 115.379 29.4506 116.057 28.5942L114.488 27.3531C114.159 27.7695 113.568 28.1602 112.577 28.4443C111.589 28.7276 110.278 28.8828 108.615 28.8828V30.8828ZM116.059 28.5909C117.268 27.0505 117.783 24.8137 117.783 22.0635H115.783C115.783 24.6258 115.292 26.329 114.486 27.3564L116.059 28.5909ZM117.783 22.0635C117.783 19.3154 117.268 17.0841 116.054 15.5627L114.491 16.8104C115.291 17.8124 115.783 19.499 115.783 22.0635H117.783ZM116.057 15.566C115.379 14.7096 114.357 14.1457 113.128 13.7934C111.897 13.4403 110.383 13.2773 108.615 13.2773V15.2773C110.278 15.2773 111.589 15.4326 112.577 15.7159C113.568 15.9999 114.159 16.3907 114.488 16.8071L116.057 15.566ZM108.615 13.2773H106.822V15.2773H108.615V13.2773ZM105.822 14.2773V29.8828H107.822V14.2773H105.822ZM127.773 12.999L127.022 12.3397L127.773 12.999ZM131.476 28.4551L130.644 29.0112L130.649 29.0184L131.476 28.4551ZM140.922 28.4551L140.094 27.8946L140.093 27.896L140.922 28.4551ZM140.922 15.7549L140.091 16.311L140.096 16.3182L140.922 15.7549ZM131.476 15.7549L130.647 15.1944L130.646 15.1958L131.476 15.7549ZM125.818 22.0967C125.818 18.4516 126.756 15.6765 128.525 13.6583L127.022 12.3397C124.851 14.815 123.818 18.105 123.818 22.0967H125.818ZM128.525 13.6583C130.264 11.6755 132.773 10.6289 136.207 10.6289V8.62891C132.336 8.62891 129.223 9.8291 127.022 12.3397L128.525 13.6583ZM136.207 10.6289C139.641 10.6289 142.15 11.6755 143.889 13.6583L145.393 12.3397C143.191 9.8291 140.078 8.62891 136.207 8.62891V10.6289ZM143.889 13.6583C145.658 15.6765 146.596 18.4516 146.596 22.0967H148.596C148.596 18.105 147.563 14.815 145.393 12.3397L143.889 13.6583ZM146.596 22.0967C146.596 25.7418 145.658 28.5168 143.889 30.535L145.393 31.8536C147.563 29.3784 148.596 26.0883 148.596 22.0967H146.596ZM143.889 30.535C142.15 32.5179 139.641 33.5645 136.207 33.5645V35.5645C140.078 35.5645 143.191 34.3643 145.393 31.8536L143.889 30.535ZM136.207 33.5645C132.773 33.5645 130.264 32.5179 128.525 30.535L127.022 31.8536C129.223 34.3643 132.336 35.5645 136.207 35.5645V33.5645ZM128.525 30.535C126.756 28.5168 125.818 25.7418 125.818 22.0967H123.818C123.818 26.0883 124.851 29.3784 127.022 31.8536L128.525 30.535ZM128.998 22.0967C128.998 24.9588 129.503 27.3061 130.644 29.0112L132.307 27.8989C131.478 26.6601 130.998 24.7684 130.998 22.0967H128.998ZM130.649 29.0184C131.874 30.8146 133.801 31.6465 136.207 31.6465V29.6465C134.297 29.6465 133.069 29.0174 132.302 27.8917L130.649 29.0184ZM136.207 31.6465C138.613 31.6465 140.537 30.8146 141.751 29.0141L140.093 27.896C139.337 29.0175 138.118 29.6465 136.207 29.6465V31.6465ZM141.75 29.0155C142.905 27.3095 143.416 24.9604 143.416 22.0967H141.416C141.416 24.7668 140.931 26.6567 140.094 27.8946L141.75 29.0155ZM143.416 22.0967C143.416 19.2337 142.905 16.8881 141.748 15.1915L140.096 16.3182C140.931 17.5436 141.416 19.4258 141.416 22.0967H143.416ZM141.753 15.1987C140.54 13.3866 138.616 12.5469 136.207 12.5469V14.5469C138.115 14.5469 139.333 15.1791 140.091 16.311L141.753 15.1987ZM136.207 12.5469C133.798 12.5469 131.871 13.3865 130.647 15.1944L132.304 16.3153C133.073 15.1792 134.3 14.5469 136.207 14.5469V12.5469ZM130.646 15.1958C129.503 16.8915 128.998 19.2353 128.998 22.0967H130.998C130.998 19.4242 131.478 17.5401 132.305 16.3139L130.646 15.1958Z" fill="black" mask="url(#path-6-outside-1_15282_9)"/>
</svg>
